<svg id="_x33_0" enable-background="new 0 0 64 64" height="512" viewBox="0 0 64 64" width="512" xmlns="http://www.w3.org/2000/svg"><g><path d="m18 33h1v-6h-1c-1.654 0-3 1.346-3 3s1.346 3 3 3z"/><path d="m43 34v-9.202c-.646.132-1.315.202-2 .202-3.224 0-6.143-1.541-7.979-4h-.021v15h5c0 2.972-2.163 5.433-5 5.91v3.039c5.598-.507 10-5.221 10-10.949zm-5-2c-1.105 0-2-.895-2-2s.895-2 2-2 2 .895 2 2-.895 2-2 2z"/><path d="m30.795 53.889.74 1.111h.93l.74-1.111-1.205-.723z"/><path d="m45 27v6h1c1.654 0 3-1.346 3-3s-1.346-3-3-3z"/><path d="m31 21h-5c-2.757 0-5 2.243-5 5v8c0 5.728 4.402 10.442 10 10.949zm-6 16h-2v-2h2zm0-4h-2v-2h2zm0-4h-2v-2h2zm4 8h-2v-2h2zm0-4h-2v-2h2zm0-4h-2v-2h2z"/><path d="m26.589 56.413-2.977-5.953-3.67.489c-3.958.529-6.942 3.938-6.942 7.931v2.12h6v-4h2v4h7.28l1.617-4.852-.819-1.228z"/><path d="m35.356 46.545c-1.073.287-2.194.455-3.356.455s-2.283-.168-3.356-.455l-.494 1.979 3.85 2.31 3.85-2.31z"/><path d="m15.619 25.631c.711-.39 1.515-.631 2.381-.631h1.08c.488-3.387 3.401-6 6.92-6h5.859c-.214-.495-.392-1.012-.526-1.549l-.303-1.208 1.939-.485.303 1.209c.888 3.552 4.066 6.033 7.728 6.033 4.411 0 8-3.589 8-8 0-3.309-2.691-6-6-6-2.206 0-4 1.794-4 4 0 1.103.897 2 2 2s2-.897 2-2h2c0 2.206-1.794 4-4 4s-4-1.794-4-4c0-2.319 1.325-4.331 3.255-5.329-1.291-2.821-4.091-4.671-7.255-4.671h-3c-2.757 0-5 2.243-5 5 0 .324.031.651.094.97l.193.995-1.263.229c-5.229.951-9.024 5.498-9.024 10.813 0 .603.051 1.211.149 1.808z"/><path d="m38.292 50.181-1.077-.144-3.271 1.963 2.645 1.587z"/><path d="m44.058 50.95-3.67-.489-2.977 5.953-2.489-1.493-.819 1.228 1.617 4.851h7.28v-4h2v4h6v-2.12c0-3.993-2.984-7.402-6.942-7.93z"/><path d="m31.721 57-1.334 4h3.226l-1.334-4z"/><path d="m25.708 50.181 1.703 3.406 2.645-1.587-3.271-1.963z"/><path d="m1 13h2v-6h6v-2h-8z"/><path d="m55 5v2h6v6h2v-8z"/><path d="m3 39h-2v8h8v-2h-6z"/><path d="m61 45h-6v2h8v-8h-2z"/></g></svg>